<svg xmlns="http://www.w3.org/2000/svg" viewBox="0 0 1000 410" role="img"><title>Animation drawing step 3</title><rect width="1000" height="410" rx="14" fill="#15131d"/><g transform="scale(1)"><rect x="24" y="38" width="50" height="34" rx="4" fill="#101218" stroke="#6f6188"/><text x="49" y="59" text-anchor="middle" fill="white" font-size="9">Esc</text><rect x="78" y="38" width="50" height="34" rx="4" fill="#101218" stroke="#6f6188"/><text x="103" y="59" text-anchor="middle" fill="white" font-size="9">F1</text><rect x="132" y="38" width="50" height="34" rx="4" fill="#101218" stroke="#6f6188"/><text x="157" y="59" text-anchor="middle" fill="white" font-size="9">F2</text><rect x="186" y="38" width="50" height="34" rx="4" fill="#101218" stroke="#6f6188"/><text x="211" y="59" text-anchor="middle" fill="white" font-size="9">F3</text><rect x="240" y="38" width="50" height="34" rx="4" fill="#101218" stroke="#6f6188"/><text x="265" y="59" text-anchor="middle" fill="white" font-size="9">F4</text><rect x="294" y="38" width="50" height="34" rx="4" fill="#101218" stroke="#6f6188"/><text x="319" y="59" text-anchor="middle" fill="white" font-size="9">F5</text><rect x="348" y="38" width="50" height="34" rx="4" fill="#101218" stroke="#6f6188"/><text x="373" y="59" text-anchor="middle" fill="white" font-size="9">F6</text><rect x="402" y="38" width="50" height="34" rx="4" fill="#101218" stroke="#6f6188"/><text x="427" y="59" text-anchor="middle" fill="white" font-size="9">F7</text><rect x="456" y="38" width="50" height="34" rx="4" fill="#101218" stroke="#6f6188"/><text x="481" y="59" text-anchor="middle" fill="white" font-size="9">F8</text><rect x="510" y="38" width="50" height="34" rx="4" fill="#101218" stroke="#6f6188"/><text x="535" y="59" text-anchor="middle" fill="white" font-size="9">F9</text><rect x="564" y="38" width="50" height="34" rx="4" fill="#101218" stroke="#6f6188"/><text x="589" y="59" text-anchor="middle" fill="white" font-size="9">F10</text><rect x="618" y="38" width="50" height="34" rx="4" fill="#101218" stroke="#6f6188"/><text x="643" y="59" text-anchor="middle" fill="white" font-size="9">F11</text><rect x="672" y="38" width="50" height="34" rx="4" fill="#101218" stroke="#6f6188"/><text x="697" y="59" text-anchor="middle" fill="white" font-size="9">F12</text><rect x="726" y="38" width="50" height="34" rx="4" fill="#101218" stroke="#6f6188"/><text x="751" y="59" text-anchor="middle" fill="white" font-size="9">Del</text><rect x="24" y="78" width="50" height="34" rx="4" fill="#101218" stroke="#6f6188"/><text x="49" y="99" text-anchor="middle" fill="white" font-size="9">`</text><rect x="78" y="78" width="50" height="34" rx="4" fill="#101218" stroke="#6f6188"/><text x="103" y="99" text-anchor="middle" fill="white" font-size="9">1</text><rect x="132" y="78" width="50" height="34" rx="4" fill="#101218" stroke="#6f6188"/><text x="157" y="99" text-anchor="middle" fill="white" font-size="9">2</text><rect x="186" y="78" width="50" height="34" rx="4" fill="#101218" stroke="#6f6188"/><text x="211" y="99" text-anchor="middle" fill="white" font-size="9">3</text><rect x="240" y="78" width="50" height="34" rx="4" fill="#ff8000" stroke="#6f6188"/><text x="265" y="99" text-anchor="middle" fill="white" font-size="9">4</text><rect x="294" y="78" width="50" height="34" rx="4" fill="#101218" stroke="#6f6188"/><text x="319" y="99" text-anchor="middle" fill="white" font-size="9">5</text><rect x="348" y="78" width="50" height="34" rx="4" fill="#101218" stroke="#6f6188"/><text x="373" y="99" text-anchor="middle" fill="white" font-size="9">6</text><rect x="402" y="78" width="50" height="34" rx="4" fill="#101218" stroke="#6f6188"/><text x="427" y="99" text-anchor="middle" fill="white" font-size="9">7</text><rect x="456" y="78" width="50" height="34" rx="4" fill="#101218" stroke="#6f6188"/><text x="481" y="99" text-anchor="middle" fill="white" font-size="9">8</text><rect x="510" y="78" width="50" height="34" rx="4" fill="#101218" stroke="#6f6188"/><text x="535" y="99" text-anchor="middle" fill="white" font-size="9">9</text><rect x="564" y="78" width="50" height="34" rx="4" fill="#101218" stroke="#6f6188"/><text x="589" y="99" text-anchor="middle" fill="white" font-size="9">0</text><rect x="618" y="78" width="50" height="34" rx="4" fill="#101218" stroke="#6f6188"/><text x="643" y="99" text-anchor="middle" fill="white" font-size="9">−</text><rect x="672" y="78" width="50" height="34" rx="4" fill="#101218" stroke="#6f6188"/><text x="697" y="99" text-anchor="middle" fill="white" font-size="9">=</text><rect x="726" y="78" width="104" height="34" rx="4" fill="#101218" stroke="#6f6188"/><text x="778" y="99" text-anchor="middle" fill="white" font-size="9">Back</text><rect x="834" y="78" width="50" height="34" rx="4" fill="#101218" stroke="#6f6188"/><text x="859" y="99" text-anchor="middle" fill="white" font-size="9">Home</text><rect x="24" y="118" width="77" height="34" rx="4" fill="#101218" stroke="#6f6188"/><text x="62.5" y="139" text-anchor="middle" fill="white" font-size="9">Tab</text><rect x="105" y="118" width="50" height="34" rx="4" fill="#101218" stroke="#6f6188"/><text x="130" y="139" text-anchor="middle" fill="white" font-size="9">Q</text><rect x="159" y="118" width="50" height="34" rx="4" fill="#101218" stroke="#6f6188"/><text x="184" y="139" text-anchor="middle" fill="white" font-size="9">W</text><rect x="213" y="118" width="50" height="34" rx="4" fill="#ff8000" stroke="#6f6188"/><text x="238" y="139" text-anchor="middle" fill="white" font-size="9">E</text><rect x="267" y="118" width="50" height="34" rx="4" fill="#101218" stroke="#6f6188"/><text x="292" y="139" text-anchor="middle" fill="white" font-size="9">R</text><rect x="321" y="118" width="50" height="34" rx="4" fill="#ff8000" stroke="#6f6188"/><text x="346" y="139" text-anchor="middle" fill="white" font-size="9">T</text><rect x="375" y="118" width="50" height="34" rx="4" fill="#101218" stroke="#6f6188"/><text x="400" y="139" text-anchor="middle" fill="white" font-size="9">Y</text><rect x="429" y="118" width="50" height="34" rx="4" fill="#101218" stroke="#6f6188"/><text x="454" y="139" text-anchor="middle" fill="white" font-size="9">U</text><rect x="483" y="118" width="50" height="34" rx="4" fill="#101218" stroke="#6f6188"/><text x="508" y="139" text-anchor="middle" fill="white" font-size="9">I</text><rect x="537" y="118" width="50" height="34" rx="4" fill="#101218" stroke="#6f6188"/><text x="562" y="139" text-anchor="middle" fill="white" font-size="9">O</text><rect x="591" y="118" width="50" height="34" rx="4" fill="#101218" stroke="#6f6188"/><text x="616" y="139" text-anchor="middle" fill="white" font-size="9">P</text><rect x="645" y="118" width="50" height="34" rx="4" fill="#101218" stroke="#6f6188"/><text x="670" y="139" text-anchor="middle" fill="white" font-size="9">[</text><rect x="699" y="118" width="50" height="34" rx="4" fill="#101218" stroke="#6f6188"/><text x="724" y="139" text-anchor="middle" fill="white" font-size="9">]</text><rect x="753" y="118" width="77" height="34" rx="4" fill="#101218" stroke="#6f6188"/><text x="791.5" y="139" text-anchor="middle" fill="white" font-size="9">\</text><rect x="834" y="118" width="50" height="34" rx="4" fill="#101218" stroke="#6f6188"/><text x="859" y="139" text-anchor="middle" fill="white" font-size="9">End</text><rect x="24" y="158" width="90.5" height="34" rx="4" fill="#101218" stroke="#6f6188"/><text x="69.25" y="179" text-anchor="middle" fill="white" font-size="9">Caps</text><rect x="118.5" y="158" width="50" height="34" rx="4" fill="#101218" stroke="#6f6188"/><text x="143.5" y="179" text-anchor="middle" fill="white" font-size="9">A</text><rect x="172.5" y="158" width="50" height="34" rx="4" fill="#ff8000" stroke="#6f6188"/><text x="197.5" y="179" text-anchor="middle" fill="white" font-size="9">S</text><rect x="226.5" y="158" width="50" height="34" rx="4" fill="#101218" stroke="#6f6188"/><text x="251.5" y="179" text-anchor="middle" fill="white" font-size="9">D</text><rect x="280.5" y="158" width="50" height="34" rx="4" fill="#101218" stroke="#6f6188"/><text x="305.5" y="179" text-anchor="middle" fill="white" font-size="9">F</text><rect x="334.5" y="158" width="50" height="34" rx="4" fill="#101218" stroke="#6f6188"/><text x="359.5" y="179" text-anchor="middle" fill="white" font-size="9">G</text><rect x="388.5" y="158" width="50" height="34" rx="4" fill="#ff8000" stroke="#6f6188"/><text x="413.5" y="179" text-anchor="middle" fill="white" font-size="9">H</text><rect x="442.5" y="158" width="50" height="34" rx="4" fill="#101218" stroke="#6f6188"/><text x="467.5" y="179" text-anchor="middle" fill="white" font-size="9">J</text><rect x="496.5" y="158" width="50" height="34" rx="4" fill="#101218" stroke="#6f6188"/><text x="521.5" y="179" text-anchor="middle" fill="white" font-size="9">K</text><rect x="550.5" y="158" width="50" height="34" rx="4" fill="#101218" stroke="#6f6188"/><text x="575.5" y="179" text-anchor="middle" fill="white" font-size="9">L</text><rect x="604.5" y="158" width="50" height="34" rx="4" fill="#101218" stroke="#6f6188"/><text x="629.5" y="179" text-anchor="middle" fill="white" font-size="9">;</text><rect x="658.5" y="158" width="50" height="34" rx="4" fill="#101218" stroke="#6f6188"/><text x="683.5" y="179" text-anchor="middle" fill="white" font-size="9">'</text><rect x="712.5" y="158" width="117.5" height="34" rx="4" fill="#101218" stroke="#6f6188"/><text x="771.25" y="179" text-anchor="middle" fill="white" font-size="9">Enter</text><rect x="834" y="158" width="50" height="34" rx="4" fill="#101218" stroke="#6f6188"/><text x="859" y="179" text-anchor="middle" fill="white" font-size="9">PgUp</text><rect x="24" y="198" width="117.5" height="34" rx="4" fill="#101218" stroke="#6f6188"/><text x="82.75" y="219" text-anchor="middle" fill="white" font-size="9">Shift</text><rect x="145.5" y="198" width="50" height="34" rx="4" fill="#101218" stroke="#6f6188"/><text x="170.5" y="219" text-anchor="middle" fill="white" font-size="9">Z</text><rect x="199.5" y="198" width="50" height="34" rx="4" fill="#101218" stroke="#6f6188"/><text x="224.5" y="219" text-anchor="middle" fill="white" font-size="9">X</text><rect x="253.5" y="198" width="50" height="34" rx="4" fill="#ff8000" stroke="#6f6188"/><text x="278.5" y="219" text-anchor="middle" fill="white" font-size="9">C</text><rect x="307.5" y="198" width="50" height="34" rx="4" fill="#101218" stroke="#6f6188"/><text x="332.5" y="219" text-anchor="middle" fill="white" font-size="9">V</text><rect x="361.5" y="198" width="50" height="34" rx="4" fill="#ff8000" stroke="#6f6188"/><text x="386.5" y="219" text-anchor="middle" fill="white" font-size="9">B</text><rect x="415.5" y="198" width="50" height="34" rx="4" fill="#101218" stroke="#6f6188"/><text x="440.5" y="219" text-anchor="middle" fill="white" font-size="9">N</text><rect x="469.5" y="198" width="50" height="34" rx="4" fill="#101218" stroke="#6f6188"/><text x="494.5" y="219" text-anchor="middle" fill="white" font-size="9">M</text><rect x="523.5" y="198" width="50" height="34" rx="4" fill="#101218" stroke="#6f6188"/><text x="548.5" y="219" text-anchor="middle" fill="white" font-size="9">,</text><rect x="577.5" y="198" width="50" height="34" rx="4" fill="#101218" stroke="#6f6188"/><text x="602.5" y="219" text-anchor="middle" fill="white" font-size="9">.</text><rect x="631.5" y="198" width="50" height="34" rx="4" fill="#101218" stroke="#6f6188"/><text x="656.5" y="219" text-anchor="middle" fill="white" font-size="9">/</text><rect x="685.5" y="198" width="90.5" height="34" rx="4" fill="#101218" stroke="#6f6188"/><text x="730.75" y="219" text-anchor="middle" fill="white" font-size="9">Shift</text><rect x="780" y="198" width="50" height="34" rx="4" fill="#101218" stroke="#6f6188"/><text x="805" y="219" text-anchor="middle" fill="white" font-size="9">↑</text><rect x="834" y="198" width="50" height="34" rx="4" fill="#101218" stroke="#6f6188"/><text x="859" y="219" text-anchor="middle" fill="white" font-size="9">PgDn</text><rect x="24" y="238" width="63.5" height="34" rx="4" fill="#101218" stroke="#6f6188"/><text x="55.75" y="259" text-anchor="middle" fill="white" font-size="9">Ctrl</text><rect x="91.5" y="238" width="63.5" height="34" rx="4" fill="#101218" stroke="#6f6188"/><text x="123.25" y="259" text-anchor="middle" fill="white" font-size="9">Win</text><rect x="159" y="238" width="63.5" height="34" rx="4" fill="#101218" stroke="#6f6188"/><text x="190.75" y="259" text-anchor="middle" fill="white" font-size="9">Alt</text><rect x="226.5" y="238" width="333.5" height="34" rx="4" fill="#101218" stroke="#6f6188"/><text x="393.25" y="259" text-anchor="middle" fill="white" font-size="9">Space</text><rect x="564" y="238" width="63.5" height="34" rx="4" fill="#101218" stroke="#6f6188"/><text x="595.75" y="259" text-anchor="middle" fill="white" font-size="9">Alt</text><rect x="631.5" y="238" width="63.5" height="34" rx="4" fill="#101218" stroke="#6f6188"/><text x="663.25" y="259" text-anchor="middle" fill="white" font-size="9">Fn</text><rect x="699" y="238" width="50" height="34" rx="4" fill="#101218" stroke="#6f6188"/><text x="724" y="259" text-anchor="middle" fill="white" font-size="9">←</text><rect x="753" y="238" width="50" height="34" rx="4" fill="#101218" stroke="#6f6188"/><text x="778" y="259" text-anchor="middle" fill="white" font-size="9">↓</text><rect x="807" y="238" width="50" height="34" rx="4" fill="#101218" stroke="#6f6188"/><text x="832" y="259" text-anchor="middle" fill="white" font-size="9">→</text></g><rect x="28" y="310" width="220" height="48" rx="8" fill="#282431" stroke="#b59be4"/><text x="138" y="340" text-anchor="middle" fill="white" font-size="16">DUPLICATE → EDIT</text></svg>